<?xml version="1.0" encoding="UTF-8"?>
<svg xmlns="http://www.w3.org/2000/svg" xmlns:xlink="http://www.w3.org/1999/xlink" width="512" height="512" viewBox="0 0 60 60" version="1.1"><!-- Generator: Sketch 51.3 (57544) - http://www.bohemiancoding.com/sketch --><title>047 - Observation</title><desc>Created with Sketch.</desc><defs/><g id="Page-1" stroke="none" stroke-width="1" fill="none" fill-rule="evenodd"><g id="047---Observation" transform="translate(-1.000000, -1.000000)" fill="#000000" fill-rule="nonzero"><path d="M2.472,38.392 C2.80054825,38.6202248 3.1473953,38.8209078 3.509,38.992 C3.942,39.214 4.667,39.584 4.718,39.843 C4.78050351,40.1842223 4.73940527,40.5363437 4.6,40.854 C4.451,41.174 4.295,41.448 4.16,41.687 C3.794,42.334 3.18,43.418 4.105,44.171 C4.321,44.371 4.694,44.66 5.034,44.922 C4.78364708,45.3596165 4.67042776,45.8623103 4.709,46.365 C4.7624898,46.7610202 4.97704672,47.1174091 5.302,47.35 C5.524,47.505 5.761,47.642 5.995,47.774 C6.587,48.111 6.817,48.268 6.895,48.581 C6.95072661,48.9834757 6.91657463,49.3932994 6.795,49.781 C6.736,50.049 6.679,50.317 6.645,50.581 C6.54566189,51.4923541 6.65825741,52.4143369 6.974,53.275 C7.42302917,54.8635415 8.859478,55.9705333 10.51,56 C10.7859477,55.9996337 11.0611041,55.9704758 11.331,55.913 C14.1875814,55.2367145 17.0023478,54.3946219 19.761,53.391 C22.015,54.713 23.438,58.733 23.809,60.241 C23.9197719,60.6870872 24.3203652,61.0002183 24.78,61 L49.88,60.93 C50.198095,60.9293833 50.4969218,60.7774667 50.6848608,60.5208273 C50.8727998,60.2641879 50.9274293,59.9334437 50.832,59.63 C50.5854808,58.9523229 50.2448059,58.312716 49.82,57.73 C49.5797208,57.3837455 49.3632231,57.0215796 49.172,56.646 C48.7189713,55.7295816 48.341388,54.7777639 48.043,53.8 C47.471842,51.8675187 47.075909,49.8875191 46.86,47.884 C46.651553,46.1633201 46.7190689,44.4203985 47.06,42.721 C47.1668337,42.1802365 46.8159315,41.6549958 46.2754626,41.5466815 C45.7349937,41.4383673 45.208794,41.7878298 45.099,42.328 C44.7170111,44.2372093 44.6417337,46.1950968 44.876,48.128 C45.1065953,50.2522126 45.5279627,52.3513519 46.135,54.4 C46.4631695,55.4752371 46.878203,56.5220177 47.376,57.53 C47.6044495,57.9840793 47.8640706,58.4217931 48.153,58.84 C48.175,58.872 48.196,58.905 48.218,58.94 L25.536,59 C24.8721602,56.6278229 23.6672676,54.4419012 22.016,52.614 L22.952,52.287 C23.606,52.059 24.099,51.887 24.352,51.805 C28.637,50.452 30.779,48.505 30.721,46.005 C30.6989176,45.4580093 30.2474273,45.0268604 29.7,45.03 C29.4347583,45.0362894 29.1828879,45.1477272 28.9998363,45.3397814 C28.8167846,45.5318357 28.7175579,45.7887619 28.724,46.054 C28.748,47.083 27.905,48.584 23.746,49.898 C23.48,49.984 22.972,50.161 22.297,50.398 C21.548,50.66 20.59,50.998 19.532,51.354 C16.7179576,52.3860452 13.8464785,53.2541668 10.932,53.954 C9.99676605,54.1378592 9.08388232,53.5481319 8.867,52.62 C8.65332951,52.0511143 8.57293656,51.440812 8.632,50.836 C8.658,50.627 8.706,50.418 8.752,50.209 C8.95572393,49.5176421 8.98560816,48.7866806 8.839,48.081 C8.54813158,47.1626174 7.87214829,46.4161888 6.987,46.036 L6.78,45.917 C6.88817724,45.6985751 7.01745938,45.4912548 7.166,45.298 C7.33332921,45.0853699 7.40735318,44.8140087 7.37117341,44.5458638 C7.33499364,44.277719 7.19169851,44.0356798 6.974,43.875 C6.734,43.698 6.169,43.275 5.754,42.941 C5.802,42.854 5.854,42.758 5.904,42.672 C6.061,42.396 6.24,42.072 6.415,41.706 C6.73144627,41.0050454 6.82465982,40.2237273 6.682,39.468 C6.442,38.247 5.273,37.649 4.42,37.213 C4.13189862,37.0770471 3.855901,36.9168012 3.595,36.734 C3.38116343,36.5902424 3.18038937,36.42795 2.995,36.249 C2.995,36.098 3.158,35.73 3.92,34.803 C5.71104037,32.4966723 7.24699829,30.0031296 8.501,27.366 C8.73429154,26.9531999 8.86592261,26.4907772 8.885,26.017 C8.78170832,25.0118401 8.24904392,24.1003679 7.424,23.517 C7.024,23.146 6.639,22.796 6.594,22.471 C6.60068412,22.2343377 6.65368284,22.0012793 6.75,21.785 C6.913,21.357 7.101,20.937 7.29,20.516 C7.70004204,19.670842 8.02756029,18.7880832 8.268,17.88 L8.368,17.455 C8.58115776,16.4542831 8.85499689,15.4674604 9.188,14.5 C9.97629305,12.3245514 11.1968027,10.3311884 12.776,8.64 C14.69,6.614 17.7,5.183 21.74,4.38 C24.8292785,3.7019594 27.9639482,3.25042526 31.119,3.029 C32.146425,2.98306595 33.1757816,3.00678692 34.2,3.1 C30.2149561,4.65804784 27.0152129,7.74010841 25.309,11.664 C23.0761625,13.3346185 21.0341775,15.2461498 19.22,17.364 C18.9210438,17.7315517 18.9210438,18.2584483 19.22,18.626 C21.0341775,20.7438502 23.0761625,22.6553815 25.309,24.326 C27.0389537,28.3656479 30.3593222,31.5123049 34.4860149,33.0229016 C38.6127076,34.5334983 43.1798749,34.2741136 47.109,32.306 L49.634,36.68 L48.767,37.18 C47.8114264,37.7326155 47.4842541,38.9549241 48.036,39.911 L53.036,48.571 C53.5642364,49.4915899 54.4389429,50.1624743 55.465,50.434 C55.8048373,50.5252023 56.1551376,50.5715953 56.507,50.572 C57.9347936,50.5694664 59.2529792,49.8060698 59.9657786,48.5689288 C60.678578,47.3317878 60.6779001,45.8085061 59.964,44.572 L54.964,35.913 C54.6989391,35.4532129 54.2619991,35.1176295 53.7493975,34.980148 C53.236796,34.8426665 52.690569,34.9145611 52.231,35.18 L51.365,35.68 L48.845,31.314 C51.4239948,29.5953973 53.4521573,27.1689635 54.686,24.326 C56.9188375,22.6553815 58.9608225,20.7438502 60.775,18.626 C61.0739562,18.2584483 61.0739562,17.7315517 60.775,17.364 C58.9608225,15.2461498 56.9188375,13.3346185 54.686,11.664 C52.1533105,5.80439039 46.3835322,2.00763581 40,2 C39.7,2 39.418,2.028 39.127,2.044 C36.5073717,1.2193248 33.7599979,0.876114832 31.018,1.031 C27.7640329,1.25678222 24.5310192,1.72102869 21.345,2.42 C16.837,3.32 13.56,4.899 11.322,7.264 C9.55738496,9.15253225 8.193025,11.3785037 7.311,13.808 C6.95048378,14.8528228 6.65459148,15.9188366 6.425,17 L6.325,17.421 C6.11204945,18.2059209 5.82544356,18.9689756 5.469,19.7 C5.269,20.156 5.062,20.611 4.883,21.084 C4.65280141,21.6093925 4.56187795,22.1852411 4.619,22.756 C4.8204012,23.6515695 5.33763366,24.4446356 6.076,24.99 C6.565,25.438 6.886,25.755 6.89,26.03 C6.85344643,26.1820774 6.7962489,26.3284357 6.72,26.465 C5.52223551,28.9857827 4.05537424,31.3696418 2.345,33.575 C1.62,34.458 0.86,35.486 1.02,36.517 C1.23301401,37.3114076 1.75617119,37.9869722 2.472,38.392 Z M53.231,36.919 L58.231,45.579 C58.6144977,46.198883 58.63038,46.9783186 58.2724526,47.6133094 C57.9145251,48.2483002 57.2394764,48.6382764 56.5105907,48.6311384 C55.7817049,48.6240004 55.114423,48.2208787 54.769,47.579 L49.769,38.919 L51.499,37.919 L53.231,36.919 Z M21.326,18 C22.255909,16.98011 23.2410552,16.0119894 24.277,15.1 C23.9081814,17.0157436 23.9081814,18.9842564 24.277,20.9 C23.2410552,19.9880106 22.255909,19.01989 21.326,18 Z M58.674,18 C57.744091,19.01989 56.7589448,19.9880106 55.723,20.9 C56.0918186,18.9842564 56.0918186,17.0157436 55.723,15.1 C56.7589448,16.0119894 57.744091,16.98011 58.674,18 Z M54,18 C54,25.7319865 47.7319865,32 40,32 C32.2680135,32 26,25.7319865 26,18 C26,10.2680135 32.2680135,4 40,4 C47.7285595,4.00826732 53.9917327,10.2714405 54,18 Z" id="Shape"/><path d="M12.167,18.8 L12.267,18.365 C12.4421601,17.5297777 12.6655339,16.7053982 12.936,15.896 C13.5384807,14.2266081 14.4717916,12.6960326 15.68,11.396 C16.9756775,10.1735333 18.5621668,9.30232387 20.289,8.865 C20.6309032,8.76103572 20.8913705,8.48256559 20.9722863,8.13448661 C21.0532022,7.78640763 20.9422736,7.42160128 20.6812863,7.17748659 C20.420299,6.9333719 20.0489032,6.8470357 19.707,6.951 C17.6464938,7.48675479 15.7588052,8.54442525 14.226,10.022 C12.8334238,11.5175212 11.756941,13.2786676 11.061,15.2 C10.7614123,16.0866868 10.5143176,16.9902519 10.321,17.906 L10.221,18.339 C10.1005665,18.8742965 10.4339432,19.4066616 10.9681032,19.5320396 C11.5022632,19.6574177 12.0376881,19.3289778 12.168,18.796 L12.167,18.8 Z" id="Shape"/><circle id="Oval" cx="10" cy="22" r="1"/><path d="M28,18 C28.0099236,24.3048076 32.8949425,29.5278689 39.185,29.959 C39.209,29.959 39.229,29.977 39.254,29.979 C39.387017,29.9902778 39.5205314,29.994617 39.654,29.992 C39.769,29.999 39.889,30 40.001,30 C40.113,30 40.233,30 40.348,29.992 C40.4591428,29.9952303 40.570378,29.9912218 40.681,29.98 L40.691,29.98 C40.7246875,29.9752458 40.7580753,29.9685682 40.791,29.96 C47.0823246,29.5467787 51.9779671,24.3301952 51.9914114,18.0253291 C52.0048557,11.720463 47.1315051,6.48304833 40.842,6.043 C40.821,6.043 40.802,6.027 40.78,6.024 C40.6880038,6.01427376 40.5954927,6.01026606 40.503,6.012 C40.1883199,5.99192337 39.8726801,5.99192337 39.558,6.012 C39.458,6.012 39.353,6.012 39.251,6.023 C39.222,6.023 39.198,6.04 39.17,6.044 C32.8867886,6.48207695 28.0104548,11.701544 28,18 Z M40,8 C45.5228475,8 50,12.4771525 50,18 C50,23.5228475 45.5228475,28 40,28 C34.4771525,28 30,23.5228475 30,18 C30.0060624,12.4796656 34.4796656,8.00606237 40,8 Z" id="Shape"/><path d="M33,19 C33.5522847,19 34,18.5522847 34,18 C34.0033074,14.6876624 36.6876624,12.0033074 40,12 C40.5522847,12 41,11.5522847 41,11 C41,10.4477153 40.5522847,10 40,10 C35.5837781,10.0049599 32.0049599,13.5837781 32,18 C32,18.5522847 32.4477153,19 33,19 Z" id="Shape"/><path d="M37,18 C37,19.6568542 38.3431458,21 40,21 C41.6568542,21 43,19.6568542 43,18 C43,16.3431458 41.6568542,15 40,15 C38.3431458,15 37,16.3431458 37,18 Z M41,18 C41,18.5522847 40.5522847,19 40,19 C39.4477153,19 39,18.5522847 39,18 C39,17.4477153 39.4477153,17 40,17 C40.5522847,17 41,17.4477153 41,18 Z" id="Shape"/><circle id="Oval" cx="44" cy="12" r="1"/></g></g></svg>
