<?xml version="1.0" encoding="UTF-8"?>
<svg xmlns="http://www.w3.org/2000/svg" xmlns:xlink="http://www.w3.org/1999/xlink" width="512" height="512" viewBox="0 0 59 60" version="1.1"><!-- Generator: Sketch 51.3 (57544) - http://www.bohemiancoding.com/sketch --><title>002 - Love</title><desc>Created with Sketch.</desc><defs/><g id="Page-1" stroke="none" stroke-width="1" fill="none" fill-rule="evenodd"><g id="002---Love" transform="translate(-1.000000, -1.000000)" fill="#000000" fill-rule="nonzero"><path d="M2.471,38.391 C2.80026375,38.6192011 3.14777307,38.8198802 3.51,38.991 C3.942,39.212 4.667,39.582 4.717,39.841 C4.7807262,40.1827503 4.73995247,40.5357742 4.6,40.854 C4.451,41.174 4.294,41.449 4.16,41.687 C3.793,42.333 3.181,43.416 4.105,44.172 C4.321,44.372 4.694,44.661 5.035,44.922 C4.78441543,45.359553 4.67085435,45.8622176 4.709,46.365 C4.76229209,46.7608192 4.97692342,47.1169696 5.302,47.349 C5.524,47.505 5.761,47.641 5.995,47.774 C6.586,48.111 6.817,48.267 6.895,48.581 C6.95072661,48.9834757 6.91657463,49.3932994 6.795,49.781 C6.737,50.049 6.679,50.317 6.646,50.581 C6.54659663,51.4922755 6.6588426,52.4141982 6.974,53.275 C7.4234219,54.863697 8.8602194,55.9706445 10.511,56 C10.7865898,55.9991281 11.0613626,55.9699754 11.331,55.913 C14.1877405,55.2356794 17.0027993,54.3932653 19.762,53.39 C22.015,54.712 23.438,58.732 23.809,60.241 C23.9197719,60.6870872 24.3203652,61.0002183 24.78,61 L49.88,60.93 C50.198095,60.9293833 50.4969218,60.7774667 50.6848608,60.5208273 C50.8727998,60.2641879 50.9274293,59.9334437 50.832,59.63 C50.5840507,58.9525717 50.2427579,58.3130683 49.818,57.73 C49.5784791,57.3851857 49.3623284,57.0247119 49.171,56.651 C48.7194175,55.7335946 48.3418821,54.7815634 48.042,53.804 C47.4712015,51.8714821 47.0756037,49.8914849 46.86,47.888 C46.5081643,44.8963057 46.9614389,41.8649237 48.173,39.107 C48.9122569,37.5774407 49.8234731,36.137142 50.889,34.814 C51.489,34.004 52.112,33.165 52.671,32.285 C54.2555588,29.8366121 55.1073421,26.9863473 55.126,24.07 C55.134,23.731 55.126,23.386 55.126,23.03 C55.9125062,22.1152672 56.6028076,21.1220373 57.186,20.066 C60.986,13.451 60.905,6.706 56.975,3.283 C54.6923517,1.39264683 51.6904192,0.608849562 48.775,1.142 C46.0584829,1.61114907 43.629826,3.11566171 42,5.339 C40.4905713,3.29206286 38.3002127,1.85097219 35.823,1.275 C35.8,1.27 35.78,1.255 35.755,1.251 C35.73,1.247 35.691,1.244 35.655,1.24 C35.509,1.209 35.366,1.169 35.217,1.14 C34.462536,1.01483507 33.6968272,0.97091744 32.933,1.009 C32.339,1 31.718,1 31.017,1.031 C27.7634281,1.25682993 24.5307746,1.72073844 21.345,2.419 C16.836,3.319 13.558,4.9 11.323,7.264 C9.55800834,9.15204797 8.19329313,11.3777039 7.311,13.807 C6.95040811,14.8521387 6.65451487,15.9184898 6.425,17 L6.325,17.422 C6.11188832,18.2074692 5.82459624,18.9709027 5.467,19.702 C5.267,20.157 5.061,20.612 4.88,21.086 C4.65224528,21.611379 4.56207696,22.1861159 4.618,22.756 C4.81913234,23.6524828 5.33679367,24.4463722 6.076,24.992 C6.564,25.44 6.885,25.756 6.889,26.031 C6.85287471,26.1828944 6.79565216,26.3289802 6.719,26.465 C5.52119196,28.9879725 4.05327497,31.3735891 2.341,33.58 C1.617,34.461 0.859,35.489 1.018,36.518 C1.23142242,37.3119913 1.7549884,37.9868977 2.471,38.391 Z M41.133,7.649 C41.3259459,7.93932926 41.651404,8.11381253 42,8.11381253 C42.348596,8.11381253 42.6740541,7.93932926 42.867,7.649 C44.1508812,5.26767819 46.4482023,3.59960887 49.11,3.116 C51.4343552,2.69746515 53.8258581,3.30984755 55.663,4.794 C58.851,7.571 58.763,13.308 55.439,19.094 C52.772,24.048 45.5,28.771 42,30.842 C41.38,30.476 40.764,30.075 40.148,29.682 C40.6430684,29.128251 41.0750539,28.5211907 41.436,27.872 C43.585,24.141 43.5,20.308 41.225,18.333 C39.9019753,17.2354036 38.1615179,16.7786022 36.47,17.085 C35.1020245,17.3164692 33.8543323,18.008769 32.934,19.047 C31.581686,17.5202338 29.5532905,16.774235 27.534,17.061 C25.257,11.985 25.546,7.225 28.334,4.795 C29.6651268,3.69580299 31.3226738,3.06815737 33.048,3.01 C33.8015934,3.03810448 34.5532483,3.10485891 35.3,3.21 C37.789046,3.78875517 39.9118234,5.40422041 41.133,7.649 Z M28.382,19 C28.6108521,19.0000577 28.8393041,19.0191233 29.065,19.057 C30.3498537,19.2817697 31.4578959,20.0895325 32.065,21.244 C32.243376,21.5543541 32.5740368,21.7456919 32.932,21.7456919 C33.2899632,21.7456919 33.620624,21.5543541 33.799,21.244 C34.4063405,20.0897368 35.5142685,19.2820574 36.799,19.057 C37.901354,18.8563373 39.0365625,19.1434225 39.911,19.844 C41.441,21.172 41.357,23.997 39.686,26.899 C38.723,28.69 36.276,30.838 32.931,32.84 C29.586,30.84 27.139,28.688 26.163,26.874 C24.506,23.997 24.421,21.174 25.952,19.844 C26.636596,19.2839614 27.4976433,18.9848981 28.382,19 Z M3.924,34.8 C5.71353526,32.4953873 7.24784001,30.0034832 8.5,27.368 C8.7352421,26.9548156 8.86763342,26.491103 8.886,26.016 C8.78386015,25.0104644 8.25093667,24.0985488 7.425,23.516 C7.025,23.145 6.639,22.795 6.595,22.471 C6.60291104,22.2346006 6.65550369,22.0018357 6.75,21.785 C6.913,21.357 7.102,20.937 7.29,20.517 C7.70056527,19.6709167 8.02842184,18.787144 8.269,17.878 L8.369,17.452 C8.58139683,16.4521828 8.85491022,15.4663323 9.188,14.5 C9.97697112,12.3245803 11.1973938,10.3310192 12.776,8.639 C14.689,6.615 17.7,5.183 21.74,4.38 C23.306,4.06 25.04,3.738 26.826,3.48 C23.575,6.512 23.126,11.966 25.613,17.675 C25.2658039,17.8577029 24.9403999,18.0791118 24.643,18.335 C22.368,20.31 22.283,24.143 24.417,27.848 C26.034,30.856 30.133,33.537 32.432,34.868 C32.7414011,35.0466328 33.1225989,35.0466328 33.432,34.868 C35.3060509,33.8019364 37.0705655,32.5539142 38.7,31.142 C39.63,31.742 40.568,32.326 41.505,32.866 C41.8144011,33.0446328 42.1955989,33.0446328 42.505,32.866 C46.3015144,30.7176726 49.8441491,28.1488347 53.066,25.208 C52.8690857,27.3487167 52.1564218,29.4098492 50.989,31.215 C50.47,32.036 49.87,32.844 49.289,33.626 C48.1318779,35.0698493 47.144408,36.6418155 46.346,38.311 C44.9922651,41.3955796 44.4861884,44.7855341 44.88,48.131 C45.1091335,50.2541286 45.5291661,52.3522836 46.135,54.4 C46.4639651,55.4752817 46.8789726,56.5223313 47.376,57.531 C47.6039597,57.981734 47.8629147,58.4161101 48.151,58.831 L48.218,58.931 L25.536,59 C24.8717541,56.627989 23.6669103,54.4421559 22.016,52.614 L22.916,52.298 C23.585,52.065 24.089,51.889 24.347,51.806 C28.632,50.451 30.774,48.5 30.716,46.006 C30.7030213,45.4537153 30.2447847,45.0165213 29.6925,45.0295 C29.1402153,45.0424787 28.7030213,45.5007153 28.716,46.053 C28.74,47.082 27.897,48.583 23.739,49.898 C23.468,49.985 22.947,50.167 22.256,50.408 C21.512,50.668 20.567,50.999 19.523,51.353 L19.517,51.353 C16.7027073,52.3842961 13.8312719,53.2524045 10.917,53.953 C9.98818987,54.1231349 9.08827575,53.5379712 8.867,52.62 C8.65403967,52.0505889 8.57367075,51.4401271 8.632,50.835 C8.659,50.626 8.706,50.417 8.752,50.208 C8.95538984,49.5169007 8.98493135,48.7862637 8.838,48.081 C8.54781232,47.1628818 7.87254397,46.4164365 6.988,46.036 C6.918,45.997 6.849,45.957 6.78,45.917 C6.88833948,45.6989801 7.01761396,45.492007 7.166,45.299 C7.33365336,45.0863106 7.40787187,44.8147167 7.37168403,44.5463235 C7.33549619,44.2779303 7.19199688,44.0356917 6.974,43.875 C6.734,43.699 6.168,43.275 5.753,42.941 C5.801,42.854 5.853,42.758 5.904,42.672 C6.061,42.396 6.241,42.072 6.415,41.706 C6.73195159,41.0051861 6.82518406,40.2237094 6.682,39.468 C6.442,38.248 5.273,37.65 4.42,37.214 C4.13261917,37.0772821 3.8570164,36.9170713 3.596,36.735 C3.3817006,36.5914967 3.18087589,36.4288287 2.996,36.249 C3,36.1 3.162,35.731 3.924,34.8 Z" id="Shape"/><path d="M10.966,19.541 C11.5036006,19.6657991 12.0406657,19.3314761 12.166,18.794 L12.266,18.361 C12.4412611,17.5251451 12.6646327,16.7001058 12.935,15.89 C13.5378535,14.2207868 14.4711212,12.6902822 15.679,11.39 C16.9752482,10.1677817 18.56199,9.29662258 20.289,8.859 C20.6307245,8.75467845 20.8908361,8.47597349 20.9713533,8.12787058 C21.0518705,7.77976768 20.9405607,7.41515194 20.6793533,7.17137058 C20.4181459,6.92758923 20.0467245,6.84167845 19.705,6.946 C17.6448677,7.48195529 15.7575511,8.5396103 14.225,10.017 C12.8322993,11.5141486 11.7561411,13.277021 11.061,15.2 C10.7612456,16.087314 10.5141488,16.9915545 10.321,17.908 L10.221,18.341 C10.0960876,18.8779763 10.4293361,19.4147523 10.966,19.541 Z" id="Shape"/><path d="M44.968,10.012 C45.446319,10.2872812 46.0572201,10.1230316 46.333,9.645 C47.016404,8.2963912 48.2873983,7.34166761 49.773,7.061 C50.9177067,6.84282934 52.1014361,7.11490934 53.036,7.811 C53.4532511,8.17357494 54.0854251,8.12925113 54.448,7.712 C54.8105749,7.29474887 54.7662511,6.66257494 54.349,6.3 C52.9656939,5.20511648 51.1761162,4.76273666 49.442,5.087 C47.3635474,5.45856796 45.5750036,6.77319573 44.6,8.646 C44.4675636,8.87592135 44.4319334,9.14905069 44.5009541,9.40525248 C44.5699748,9.66145428 44.7379873,9.87972232 44.968,10.012 Z" id="Shape"/><circle id="Oval" cx="10" cy="22" r="1"/></g></g></svg>
