<?xml version="1.0" encoding="UTF-8"?>
<svg xmlns="http://www.w3.org/2000/svg" xmlns:xlink="http://www.w3.org/1999/xlink" width="512" height="512" viewBox="0 0 60 60" version="1.1"><!-- Generator: Sketch 51.3 (57544) - http://www.bohemiancoding.com/sketch --><title>041 - Strategy</title><desc>Created with Sketch.</desc><defs/><g id="Page-1" stroke="none" stroke-width="1" fill="none" fill-rule="evenodd"><g id="041---Strategy" transform="translate(-1.000000, -1.000000)" fill="#000000" fill-rule="nonzero"><path d="M2.472,38.392 C2.80054825,38.6202248 3.1473953,38.8209078 3.509,38.992 C3.942,39.214 4.667,39.584 4.717,39.843 C4.78031432,40.1841061 4.7395478,40.5363706 4.6,40.854 C4.451,41.174 4.294,41.449 4.16,41.687 C3.793,42.334 3.18,43.417 4.105,44.172 C4.321,44.372 4.694,44.661 5.035,44.922 C4.78429954,45.3595079 4.67073033,45.8622085 4.709,46.365 C4.76194566,46.7609409 4.97665396,47.1172191 5.302,47.349 C5.524,47.505 5.761,47.642 5.995,47.774 C6.586,48.111 6.817,48.268 6.895,48.581 C6.95069328,48.9834766 6.91654191,49.393293 6.795,49.781 C6.737,50.049 6.679,50.317 6.646,50.581 C6.54656038,51.4922757 6.65880736,52.4142066 6.974,53.275 C7.42302917,54.8635415 8.859478,55.9705333 10.51,56 C10.7859477,55.9996337 11.0611041,55.9704758 11.331,55.913 C14.1879732,55.2369535 17.0030862,54.3948571 19.762,53.391 C22.014,54.712 23.438,58.733 23.809,60.241 C23.9197719,60.6870872 24.3203652,61.0002183 24.78,61 L49.88,60.93 C50.198095,60.9293833 50.4969218,60.7774667 50.6848608,60.5208273 C50.8727998,60.2641879 50.9274293,59.9334437 50.832,59.63 C50.584758,58.9524505 50.2437748,58.3128965 49.819,57.73 C49.5794826,57.383949 49.3630142,57.0225003 49.171,56.648 C48.7191614,55.7310529 48.3416169,54.779333 48.042,53.802 C47.4712962,51.8694587 47.0757001,49.8894701 46.86,47.886 C46.5082619,44.8943072 46.9615327,41.8629508 48.173,39.105 C48.9123887,37.5731134 49.8239359,36.1304733 50.89,34.805 C51.49,33.996 52.113,33.158 52.673,32.274 C52.95,31.835 53.186,31.409 53.402,30.991 L58,30.991 C59.6568542,30.991 60.9999999,29.6478542 60.9999999,27.991 C60.9999999,26.3341458 59.6568542,24.991 58,24.991 L55.085,24.991 C55.108,24.684 55.125,24.373 55.13,24.056 C55.1559105,22.3645404 55.0455537,20.6737414 54.8,19 L58,19 C59.6568542,19 61,17.6568542 61,16 C61,14.3431458 59.6568542,13 58,13 L53.092,13 C51.9198058,10.6312921 50.2128543,8.56761306 48.106,6.972 C42.459,2.555 37.188,0.731 31.017,1.031 C27.7633257,1.25642965 24.5306187,1.72068008 21.345,2.42 C16.837,3.32 13.559,4.899 11.322,7.264 C9.55764935,9.15273351 8.19332433,11.378648 7.311,13.808 C6.95048378,14.8528228 6.65459148,15.9188366 6.425,17 L6.325,17.421 C6.11203544,18.2060552 5.82508359,18.9691396 5.468,19.7 C5.268,20.155 5.062,20.61 4.881,21.084 C4.65311901,21.6096949 4.56294901,22.1847868 4.619,22.755 C4.8202643,23.6508991 5.33750027,24.4443256 6.076,24.99 C6.565,25.439 6.886,25.755 6.89,26.03 C6.85309275,26.1819661 6.79591349,26.3282777 6.72,26.465 C5.52194066,28.9872106 4.05403523,31.3721378 2.342,33.578 C1.618,34.46 0.86,35.488 1.019,36.517 C1.23276535,37.3113274 1.75616654,37.9867419 2.472,38.392 Z M59,28 C59,28.5522847 58.5522847,29 58,29 L45.84,29 C45.5718035,29.0022516 45.313768,28.8975258 45.123,28.709 L41.323,24.849 L42.73,23.424 L45.384,26.118 C45.9496542,26.6854378 46.7187877,27.0030294 47.52,27 L58,27 C58.5522847,27 59,27.4477153 59,28 Z M53.13,24.035 C53.125,24.364 53.108,24.686 53.081,25 L47.52,25 C47.2513781,25.0019205 46.9930358,24.8968565 46.802,24.708 L44.135,22 L46.805,19.3 C46.9923148,19.1088981 47.2484069,19.0008423 47.516,19 L52.769,19 C53.0321414,20.6650314 53.1529117,22.3494591 53.13,24.035 Z M59,16 C59,16.5522847 58.5522847,17 58,17 L47.516,17 C46.714045,17.0016591 45.9457715,17.3226427 45.381,17.892 L34.706,28.7 C34.5184421,28.8913486 34.2619402,28.9994252 33.994,29 L27,29 C26.4477153,29 26,29.4477153 26,30 L26,30.132 L22.8,28 L26,25.868 L26,26 C26,26.5522847 26.4477153,27 27,27 L32.314,27 C33.1158883,26.99801 33.88404,26.6770773 34.449,26.108 L40.6,19.873 C40.6058892,19.8696892 40.6115668,19.8660154 40.617,19.862 C40.623,19.862 40.624,19.849 40.63,19.843 L45.124,15.3 C45.3109719,15.1077911 45.5678535,14.9995544 45.836,15 L58,15 C58.5522847,15 59,15.4477153 59,16 Z M27,15 L33.99,15 C34.2586644,14.9978582 34.5170884,15.1029554 34.708,15.292 L38.508,19.147 L37.1,20.576 L34.446,17.882 C33.8803458,17.3145622 33.1112123,16.9969706 32.31,17 L27,17 C26.4477153,17 26,17.4477153 26,18 L26,18.132 L22.8,16 L26,13.868 L26,14 C26,14.5522847 26.4477153,15 27,15 Z M3.924,34.8 C5.71375889,32.4951848 7.2480766,30.0029244 8.5,27.367 C8.73497076,26.954426 8.86735419,26.4914269 8.886,26.017 C8.78360356,25.011548 8.25073785,24.0997313 7.425,23.517 C7.025,23.146 6.639,22.796 6.595,22.472 C6.60269376,22.2355727 6.65529553,22.0027674 6.75,21.786 C6.913,21.358 7.101,20.938 7.29,20.518 C7.70037906,19.6721835 8.02823001,18.7887608 8.269,17.88 L8.369,17.455 C8.58135844,16.4541893 8.85487145,15.4673384 9.188,14.5 C9.97659287,12.3246957 11.1970675,10.3313899 12.776,8.64 C14.69,6.614 17.7,5.183 21.74,4.38 C24.829616,3.70196034 27.9646181,3.25042647 31.12,3.029 C36.774,2.737 41.633,4.448 46.873,8.547 C48.468371,9.76117875 49.8129015,11.2734783 50.832,13 L45.832,13 C45.0301117,13.00199 44.26196,13.3229227 43.697,13.892 L39.913,17.724 L36.123,13.883 C35.5582432,13.3159356 34.7903177,12.9980368 33.99,13 L28,13 L28,12 C28.0000552,11.6311131 27.7970216,11.292154 27.471765,11.118126 C27.1465085,10.9440981 26.7518587,10.9632678 26.445,11.168 L20.445,15.168 C20.1668449,15.3534732 19.9997756,15.6656789 19.9997756,16 C19.9997756,16.3343211 20.1668449,16.6465268 20.445,16.832 L26.445,20.832 C26.7518587,21.0367322 27.1465085,21.0559019 27.471765,20.881874 C27.7970216,20.707846 28.0000552,20.3688869 28,20 L28,19 L32.31,19 C32.5786219,18.9980795 32.8369642,19.1031435 33.028,19.292 L35.7,22 L33.031,24.7 C32.8438967,24.8920163 32.5871004,25.0002169 32.319,25 L28,25 L28,24 C28.0000552,23.6311131 27.7970216,23.292154 27.471765,23.118126 C27.1465085,22.9440981 26.7518587,22.9632678 26.445,23.168 L20.445,27.168 C20.1668449,27.3534732 19.9997756,27.6656789 19.9997756,28 C19.9997756,28.3343211 20.1668449,28.6465268 20.445,28.832 L26.445,32.832 C26.7518587,33.0367322 27.1465085,33.0559019 27.471765,32.881874 C27.7970216,32.707846 28.0000552,32.3688869 28,32 L28,31 L33.994,31 C34.7958883,30.99801 35.56404,30.6770773 36.129,30.108 L39.917,26.272 L43.7,30.117 C44.2664653,30.6857933 45.0372584,31.0038355 45.84,31 L51.113,31 C51.069,31.072 51.032,31.142 50.986,31.215 C50.466,32.034 49.866,32.842 49.286,33.623 C48.1280959,35.0675695 47.1402654,36.6405823 46.342,38.311 C44.988208,41.3952101 44.4821254,44.7848591 44.876,48.13 C45.1063114,50.2536003 45.527685,52.352101 46.135,54.4 C46.4637026,55.4753737 46.8787184,56.5224441 47.376,57.531 C47.604122,57.9840924 47.8634115,58.4208081 48.152,58.838 C48.174,58.871 48.196,58.904 48.218,58.938 L25.536,59 C24.8717541,56.627989 23.6669103,54.4421559 22.016,52.614 L22.955,52.286 C23.607,52.059 24.099,51.886 24.355,51.805 C28.64,50.452 30.782,48.505 30.724,46.005 C30.7156043,45.6477344 30.5172474,45.3220864 30.2036484,45.1507246 C29.8900495,44.9793627 29.5088516,44.9883208 29.2036484,45.1742246 C28.8984452,45.3601283 28.7156042,45.6947344 28.724,46.052 C28.748,47.081 27.905,48.582 23.746,49.896 C23.479,49.982 22.972,50.159 22.298,50.396 C21.549,50.658 20.591,50.996 19.531,51.353 C16.7168654,52.3847693 13.8454025,53.252886 10.931,53.953 C9.9970518,54.1330453 9.08705439,53.5453387 8.867,52.62 C8.65391662,52.0509676 8.57354163,51.4408017 8.632,50.836 C8.659,50.626 8.706,50.417 8.752,50.208 C8.95539225,49.5165593 8.98493295,48.7855986 8.838,48.08 C8.54685539,47.1626653 7.87185426,46.4168803 6.988,46.036 C6.918,45.997 6.849,45.957 6.78,45.917 C6.88817724,45.6985751 7.01745938,45.4912548 7.166,45.298 C7.33332921,45.0853699 7.40735318,44.8140087 7.37117341,44.5458638 C7.33499364,44.277719 7.19169851,44.0356798 6.974,43.875 C6.734,43.698 6.168,43.275 5.754,42.941 C5.802,42.854 5.854,42.758 5.904,42.672 C6.061,42.396 6.241,42.072 6.415,41.706 C6.73195159,41.0051861 6.82518406,40.2237094 6.682,39.468 C6.442,38.247 5.273,37.649 4.419,37.213 C4.13122025,37.0770398 3.85555542,36.9167929 3.595,36.734 C3.38069965,36.5908717 3.17987123,36.4285354 2.995,36.249 C3,36.1 3.162,35.731 3.924,34.8 Z" id="Shape"/><path d="M10.966,19.54 C11.5032883,19.6648555 12.0402087,19.33107 12.166,18.794 L12.266,18.357 C12.4416976,17.5225638 12.6650637,16.6988805 12.935,15.89 C13.5374558,14.2205962 14.4707696,12.6900159 15.679,11.39 C16.9749597,10.1673852 18.5618104,9.29616632 20.289,8.859 C20.8175365,8.69773284 21.1152671,8.1385365 20.954,7.61000001 C20.7927328,7.08146351 20.2335365,6.78373287 19.705,6.945 C17.6449016,7.48103948 15.7576052,8.53868316 14.225,10.016 C12.8317446,11.5131091 11.7555223,13.2764265 11.061,15.2 C10.7609859,16.0868957 10.5138846,16.9908189 10.321,17.907 L10.221,18.34 C10.0960876,18.8769763 10.4293361,19.4137523 10.966,19.54 Z" id="Shape"/><circle id="Oval" cx="10" cy="22" r="1"/></g></g></svg>
